<svg version="1.0" xmlns="http://www.w3.org/2000/svg" width="133.333" height="133.333" viewBox="0 0 100 100"><path d="M8 50v50h30.1c26.9-.1 30.7-.3 36.2-2.1 10.6-3.3 16.4-10.7 17.4-22.4 1.3-14.8-4.2-23.3-18.2-28-1.7-.6-1.4-.9 2-2.3 5.8-2.4 8-4.2 10.7-8.7 3.4-5.9 3.3-18.1-.2-24.5-3-5.4-9.4-9.6-16.9-11-2.9-.5-17.9-1-33.2-1H8v50zm53.7-33.9c4.6 2.2 6.3 5.5 6.3 12 0 4.8-1.4 7.9-4.8 10.4-2.4 1.8-4.6 2-18.4 2.3l-15.8.4-.1-3.1c0-1.7-.1-6.7-.1-11.1 0-4.4.1-9.1.1-10.5l.1-2.6 14.3.1c12 .1 14.9.4 18.4 2.1zM63.8 56c6 3.9 8.3 14.7 4.7 22.3-2.9 6.2-6.9 7.4-24.6 7.3l-15.1-.1v-14c.1-7.7.1-14.8.1-15.8.1-1.8 1.1-1.9 16.4-1.5 12.3.2 16.8.7 18.5 1.8z"/></svg>