<?xml version="1.0" standalone="no"?>
<!DOCTYPE svg PUBLIC "-//W3C//DTD SVG 20010904//EN"
 "http://www.w3.org/TR/2001/REC-SVG-20010904/DTD/svg10.dtd">
<svg version="1.0" xmlns="http://www.w3.org/2000/svg"
 width="512.000000pt" height="512.000000pt" viewBox="0 0 512.000000 512.000000"
 preserveAspectRatio="xMidYMid meet">
<metadata>
Created by potrace 1.14, written by Peter Selinger 2001-2017
</metadata>
<g transform="translate(0.000000,512.000000) scale(0.100000,-0.100000)"
fill="#000000" stroke="none">
<path d="M410 2560 l0 -2561 1483 4 c815 2 1507 7 1537 11 43 6 264 48 315 60
25 6 152 47 170 55 210 94 313 160 430 275 86 85 160 188 214 295 37 72 106
276 115 336 3 22 8 54 11 70 18 114 22 165 23 318 0 191 -8 281 -39 407 -12
47 -22 90 -23 97 -1 7 -5 16 -9 19 -4 4 -7 14 -7 22 0 26 -97 215 -140 272
-87 117 -215 229 -340 298 -85 48 -245 107 -352 132 l-98 22 0 32 c0 31 0 31
107 60 59 17 122 38 142 48 19 10 39 18 43 18 4 0 46 23 93 51 156 93 284 235
355 391 32 72 76 214 85 273 3 22 9 64 14 93 22 139 5 441 -34 594 -63 249
-210 472 -394 596 -31 20 -58 39 -61 42 -16 18 -180 93 -266 123 -108 38 -106
37 -264 66 -58 11 -123 23 -145 27 -22 4 -698 9 -1502 11 l-1463 4 0 -2561z
m2553 1816 c275 -53 435 -191 503 -432 12 -40 18 -106 19 -210 3 -132 0 -162
-21 -244 -31 -120 -75 -201 -149 -275 -83 -83 -221 -152 -343 -170 -21 -3 -49
-8 -62 -11 -27 -7 -1408 -13 -1426 -7 -9 3 -12 185 -12 681 0 372 2 679 4 682
1 4 317 5 701 5 617 -1 708 -3 786 -19z m7 -2030 c14 -3 39 -9 55 -11 216 -38
397 -168 484 -346 63 -131 81 -217 86 -399 2 -114 -5 -224 -20 -290 -3 -14 -7
-34 -9 -45 -10 -46 -47 -140 -76 -189 -107 -188 -312 -305 -580 -332 -36 -3
-373 -6 -750 -6 l-685 0 -1 815 -2 816 737 -3 c405 -2 747 -6 761 -10z"/>
</g>
</svg>
